<?xml version="1.0" encoding="UTF-8" standalone="no"?>
<svg
   viewBox="0 0 1000 1000"
   style="enable-background:new 0 0 1000 1000"
   xml:space="preserve"
   version="1.1"
   id="svg3"
   sodipodi:docname="logos.svg"
   inkscape:version="1.3.2 (091e20ef0f, 2023-11-25)"
   inkscape:export-filename="logo.png"
   inkscape:export-xdpi="500"
   inkscape:export-ydpi="500"
   xmlns:inkscape="http://www.inkscape.org/namespaces/inkscape"
   xmlns:sodipodi="http://sodipodi.sourceforge.net/DTD/sodipodi-0.dtd"
   xmlns="http://www.w3.org/2000/svg"
   xmlns:svg="http://www.w3.org/2000/svg"><defs
     id="defs3" /><sodipodi:namedview
     id="namedview3"
     pagecolor="#ffffff"
     bordercolor="#000000"
     borderopacity="0.25"
     inkscape:showpageshadow="2"
     inkscape:pageopacity="0.0"
     inkscape:pagecheckerboard="0"
     inkscape:deskcolor="#d1d1d1"
     inkscape:zoom="0.51621822"
     inkscape:cx="621.83004"
     inkscape:cy="448.45375"
     inkscape:window-width="1920"
     inkscape:window-height="939"
     inkscape:window-x="0"
     inkscape:window-y="32"
     inkscape:window-maximized="1"
     inkscape:current-layer="svg3" /><path
     d="M500 0C223.9 0 0 223.9 0 500s223.9 500 500 500 500-223.9 500-500S776.1 0 500 0zm0 955.7c-251.7 0-455.7-204-455.7-455.7S248.3 44.3 500 44.3s455.7 204 455.7 455.7-204 455.7-455.7 455.7z"
     id="path2"
     style="fill:#05515e;fill-opacity:1" /><path
     d="m 184.3,517.1 236.6,-82 V 824.4 H 579.1 V 435.1 l 236.6,82 V 358.9 L 500,244.90851 184.3,358.9 Z"
     id="path3"
     sodipodi:nodetypes="cccccccccc"
     style="fill:#05515e;fill-opacity:1" /><rect
     style="fill:#05515e;stroke-width:0.91372;fill-opacity:1"
     id="rect3"
     width="59.22002"
     height="115.09467"
     x="600.15759"
     y="244.90851" /><path
     style="fill:#05515e;stroke:none;stroke-width:1.43437;fill-opacity:1"
     d="m 638.59094,56.634368 c 19.73682,5.58678 11.50757,36.38022 -8.59955,31.56157 -21.07349,-5.05022 -12.21355,-37.45299 8.59955,-31.56157 m 15.77912,139.745462 c 19.35573,3.74511 23.63821,21.93144 21.51549,38.72787 h -64.54643 c -7.72617,0 -19.78212,2.27037 -26.94636,-0.8655 -10.90872,-4.77484 -1.41733,-23.04591 -11.86673,-25.93147 -6.72997,-1.85845 -13.28931,-0.17838 -19.99589,-3.18858 -6.54966,-2.93978 -11.07196,-10.18897 -17.45587,-12.54073 -4.74009,-1.74621 -10.43142,1.33704 -15.53454,0.15938 -5.73314,-1.32308 -11.53251,-9.06803 -17.21238,-8.37157 -6.05671,0.74268 -10.6504,7.34061 -17.21238,8.44904 -6.70582,1.13272 -14.0185,-4.43249 -20.08111,-2.17149 -10.43944,3.89331 -16.08071,12.56612 -28.68731,11.01785 -25.15753,-3.0897 -21.37488,-20.88327 -28.11733,-38.14681 -2.30808,-5.90972 -8.53276,-10.16911 -11.57564,-15.90641 -8.06839,-15.21286 -5.83048,-34.98909 6.83647,-47.06842 5.72431,-5.458742 15.39142,-6.801392 20.31689,-12.472112 7.27784,-8.37903 4.46987,-19.28646 15.41388,-27.02494 10.4861,-7.4147 25.8143,-6.92663 35.83146,1.06802 3.96834,3.16713 6.79359,9.53107 11.38748,11.62212 5.62749,2.5615 13.72863,-1.78758 20.18515,0.54896 7.76148,2.8088 9.57105,10.68615 16.08458,14.47756 5.24649,3.05388 12.57772,0.86375 18.34573,2.23789 8.1798,1.9487 12.73494,10.509162 20.2095,12.285062 7.56985,1.79855 14.69001,-2.25927 22.82146,0.64747 9.43125,3.37138 12.43316,11.79024 20.34562,16.39114 6.14484,3.57308 13.61281,2.58017 19.81107,6.92391 8.41249,5.89549 8.81169,13.69053 14.2551,21.25871 3.12827,4.34935 8.49005,6.59893 11.87115,10.82859 9.72074,12.16036 5.19489,23.35185 4.00094,37.04446 M 447.82148,149.04577 c -2.55639,-5.5158 -7.87182,-9.8304 -9.41303,-15.77801 -4.57529,-17.65625 14.95142,-19.87962 26.62541,-17.21238 1.49809,-10.02321 -11.41951,-9.78708 -18.64566,-7.7905 -19.72023,5.44865 -21.40142,44.98786 1.43328,40.78089 M 684.40762,110.3644 c 10.97635,5.78867 2.35961,22.54852 -8.36604,16.887 -10.71983,-5.65846 -2.2844,-22.50379 8.36604,-16.887 m -94.90412,66.65275 c -1.89322,2.09767 -12.58916,2.15029 -12.58916,2.15029 11.26542,5.98356 21.77547,-5.01034 18.64675,-17.21238 0,0 0.10446,8.23463 -6.05759,15.06209 z"
     id="path11"
     sodipodi:nodetypes="cscccssssssssssssssssssssssssssccscsccscsccs" /></svg>
